<svg xmlns="http://www.w3.org/2000/svg" xmlns:xlink="http://www.w3.org/1999/xlink" version="1.0" x="0" y="0" width="2400" height="1799.3531078866663" viewBox="115.9298055267334 84.46192527770997 108.14039657592774 81.07614944458008" preserveAspectRatio="xMidYMid meet" color-interpolation-filters="sRGB"><g><defs><linearGradient id="92" x1="0%" y1="0%" x2="100%" y2="0%"><stop offset="0%" stop-color="#fa71cd"></stop> <stop offset="100%" stop-color="#9b59b6"></stop></linearGradient><linearGradient id="93" x1="0%" y1="0%" x2="100%" y2="0%"><stop offset="0%" stop-color="#f9d423"></stop> <stop offset="100%" stop-color="#f83600"></stop></linearGradient><linearGradient id="94" x1="0%" y1="0%" x2="100%" y2="0%"><stop offset="0%" stop-color="#0064d2"></stop> <stop offset="100%" stop-color="#1cb0f6"></stop></linearGradient><linearGradient id="95" x1="0%" y1="0%" x2="100%" y2="0%"><stop offset="0%" stop-color="#f00978"></stop> <stop offset="100%" stop-color="#3f51b1"></stop></linearGradient><linearGradient id="96" x1="0%" y1="0%" x2="100%" y2="0%"><stop offset="0%" stop-color="#7873f5"></stop> <stop offset="100%" stop-color="#ec77ab"></stop></linearGradient><linearGradient id="97" x1="0%" y1="0%" x2="100%" y2="0%"><stop offset="0%" stop-color="#f9d423"></stop> <stop offset="100%" stop-color="#e14fad"></stop></linearGradient><linearGradient id="98" x1="0%" y1="0%" x2="100%" y2="0%"><stop offset="0%" stop-color="#009efd"></stop> <stop offset="100%" stop-color="#2af598"></stop></linearGradient><linearGradient id="99" x1="0%" y1="0%" x2="100%" y2="0%"><stop offset="0%" stop-color="#ffcc00"></stop> <stop offset="100%" stop-color="#00b140"></stop></linearGradient><linearGradient id="100" x1="0%" y1="0%" x2="100%" y2="0%"><stop offset="0%" stop-color="#d51007"></stop> <stop offset="100%" stop-color="#ff8177"></stop></linearGradient><linearGradient id="102" x1="0%" y1="0%" x2="100%" y2="0%"><stop offset="0%" stop-color="#a2b6df"></stop> <stop offset="100%" stop-color="#0c3483"></stop></linearGradient><linearGradient id="103" x1="0%" y1="0%" x2="100%" y2="0%"><stop offset="0%" stop-color="#7ac5d8"></stop> <stop offset="100%" stop-color="#eea2a2"></stop></linearGradient><linearGradient id="104" x1="0%" y1="0%" x2="100%" y2="0%"><stop offset="0%" stop-color="#00ecbc"></stop> <stop offset="100%" stop-color="#007adf"></stop></linearGradient><linearGradient id="105" x1="0%" y1="0%" x2="100%" y2="0%"><stop offset="0%" stop-color="#b88746"></stop> <stop offset="100%" stop-color="#fdf5a6"></stop></linearGradient></defs><g class="iconmbgsvg" transform="translate(116.9900016784668,85.52212524414062)"><g fill="#000000" hollow-target="textNormalTran"><g opacity="0.55" transform="translate(33.3224983215332,11.884420394897461)"><g><rect fill="#000000" fill-opacity="0" stroke-width="2" x="0" y="0" width="39.37500000000001" height="61.18690949776231" class="image-rect"></rect> <svg filter="url(#colors9083741864)" x="0" y="0" width="39.37500000000001" height="61.18690949776231" filtersec="colorsf6348647608" class="image-svg-svg primary" style="overflow: visible;"><svg xmlns="http://www.w3.org/2000/svg" xmlns:xlink="http://www.w3.org/1999/xlink" viewBox="0.0039997100830078125 0.0019989013671875 36.790000915527344 57.17000198364258"><path transform="translate(-4.176 54.79200000000001)" d="M29.88-54.79L29.88-54.79Q33.77-52.78 40.97-50.98L40.97-50.98Q29.59-20.66 16.27 2.38L16.27 2.38Q10.08 0.86 4.18-1.73L4.18-1.73Q17.86-20.45 29.88-54.79Z"></path></svg></svg> <defs><filter id="colors9083741864"><feColorMatrix type="matrix" values="0 0 0 0 0.015625  0 0 0 0 0.046875  0 0 0 0 0.98046875  0 0 0 1 0" class="icon-feColorMatrix "></feColorMatrix></filter> <filter id="colorsf6348647608"><feColorMatrix type="matrix" values="0 0 0 0 0.99609375  0 0 0 0 0.99609375  0 0 0 0 0.99609375  0 0 0 1 0" class="icon-fecolormatrix"></feColorMatrix></filter> <filter id="colorsb236221905"><feColorMatrix type="matrix" values="0 0 0 0 0  0 0 0 0 0  0 0 0 0 0  0 0 0 1 0" class="icon-fecolormatrix"></feColorMatrix></filter></defs></g></g> <g transform="translate(0,0)"><g fill-rule="" class="tp-name" transform="translate(0,0)"><g transform="scale(1.1400000000000001)"><g><path d="M24.28-42.16L24.28-42.16Q24.95-42.16 28.31-41.44L28.31-41.44Q29.17-41.22 30.29-40.2L30.29-40.2Q31.53-38.67 31.53-37.19L31.53-37.19 31.53-36.82Q31.53-36.04 30.51-32.82L30.51-32.82 29.35-29.11 29.41-29.11Q40.82-29.7 41.14-29.76L41.14-29.76Q43.32-29.76 44.9-27.82L44.9-27.82Q45.82-26.75 45.82-24.49L45.82-24.49Q45.82-22.32 44.93-21.19L44.93-21.19Q44.42-20.46 43.59-19.93L43.59-19.93Q42.54-19.17 40.28-19.17L40.28-19.17Q36.82-18.99 25.65-18.5L25.65-18.5 18.1 0.16Q16.54 2.69 13.96 2.69L13.96 2.69 13.83 2.69Q12.73 2.69 10.39 1.69L10.39 1.69Q8.59 1.15 8 0.67L8 0.67Q7.01-0.08 6.71-0.75L6.71-0.75Q6.04-1.93 6.04-3.17L6.04-3.17Q6.04-4.38 6.98-6.15L6.98-6.15Q12.43-17.46 12.6-17.89L12.6-17.89 12.54-17.89 7.25-17.62Q5.16-17.62 3.6-19.39L3.6-19.39Q2.5-20.65 2.5-23.31L2.5-23.31Q2.5-25.57 4.59-27.12L4.59-27.12Q5.61-27.96 8.08-27.96L8.08-27.96Q9.8-28.09 16.76-28.41L16.76-28.41 19.93-39.24Q20.25-40.07 21.16-40.95L21.16-40.95Q22.61-42.16 24.28-42.16ZM35.8-13.21L35.8-13.21 36.09-13.21Q38.56-13.21 40.28-10.5L40.28-10.5Q43.77-5.96 43.96-5.48L43.96-5.48Q44.42-4.4 44.42-3.54L44.42-3.54Q44.42-0.78 41.68 0.86L41.68 0.86Q39.8 2.34 38.62 2.34L38.62 2.34Q38.62 2.36 38.3 2.36L38.3 2.36 38 2.36Q35.23 2.36 33.7-0.51L33.7-0.51Q30.64-5.32 30.27-6.1L30.27-6.1Q29.97-6.98 29.97-7.71L29.97-7.71 29.97-7.9Q29.97-10.02 31.9-11.6L31.9-11.6Q34.38-13.16 35.48-13.16L35.48-13.16Q35.48-13.21 35.8-13.21ZM56.56-42.08L56.56-42.08Q59.06-42.08 60.77-39.93L60.77-39.93Q61.82-38.48 61.82-36.79L61.82-36.79Q61.82-34.03 59.19-32.25L59.19-32.25Q57.87-31.56 56.48-31.56L56.48-31.56Q53.82-31.56 52.07-34L52.07-34Q51.27-35.34 51.27-36.68L51.27-36.68 51.27-36.95Q51.27-39.48 53.66-41.25L53.66-41.25Q55.05-42.08 56.56-42.08ZM89.48-40.69L89.48-40.69 89.7-40.69Q91.23-40.69 92.44-39.37L92.44-39.37Q93.4-38.38 93.4-36.17L93.4-36.17 93.4-35.96Q93.4-34.94 92.68-33.89L92.68-33.89Q92.03-32.92 90.61-32.5L90.61-32.5Q90.15-32.39 85.91-31.88L85.91-31.88 86.1-26.86Q90.88-27.07 91.93-27.07L91.93-27.07Q93.3-27.07 94.56-25.73L94.56-25.73Q95.5-24.73 95.5-23.02L95.5-23.02 95.5-22.75Q95.5-20.03 92.87-18.93L92.87-18.93Q92.33-18.75 88.84-18.75L88.84-18.75Q88.84-18.66 86.37-18.64L86.37-18.64Q86.37-17.72 86.47-14.18L86.47-14.18Q91.36-14.1 91.36-13.91L91.36-13.91Q93.32-13.27 94.13-11.84L94.13-11.84Q94.8-10.69 94.8-9.61L94.8-9.61Q94.64-0.86 94.45-0.86L94.45-0.86Q93.89 0.99 92.57 1.85L92.57 1.85Q91.36 2.69 89.97 2.69L89.97 2.69 78.77 2.69Q72 2.69 72 2.44L72 2.44Q71.01 2.31 69.82 1.13L69.82 1.13Q68.51-0.3 68.51-1.99L68.51-1.99Q68.78-9.61 68.88-10.82L68.88-10.82Q69.29-12.43 70.23-13.27L70.23-13.27Q71.65-14.61 73.37-14.61L73.37-14.61Q74.42-14.61 76.24-14.5L76.24-14.5Q76.14-17.13 76.14-18.23L76.14-18.23 76.08-18.37 70.82-18.26Q69.37-18.26 68.02-19.69L68.02-19.69Q67.19-20.76 67.19-22.13L67.19-22.13Q67.17-22.53 67.17-22.59L67.17-22.59Q67.17-24.49 69.05-25.78L69.05-25.78Q69.8-26.35 72.21-26.35L72.21-26.35 75.87-26.51Q75.87-27.1 75.76-30.7L75.76-30.7Q72.03-30.21 71.62-30.21L71.62-30.21 71.57-30.21Q69.23-30.21 68.02-32.5L68.02-32.5Q67.46-34.21 67.46-35.15L67.46-35.15Q67.46-37.11 69.34-38.4L69.34-38.4Q70.28-38.94 71.6-38.94L71.6-38.94Q88.86-40.69 89.48-40.69ZM57.26-29.03L57.26-29.03Q59.3-29.03 60.88-27.07L60.88-27.07Q61.71-25.78 61.71-24.52L61.71-24.52 61.47-6.07Q61.47-5.69 61.93-5.34L61.93-5.34Q62.17-5.26 62.39-5.26L62.39-5.26Q62.9-5.34 63.16-5.34L63.16-5.34Q64.37-5.34 65.15-4.19L65.15-4.19Q65.47-3.63 65.47-3.12L65.47-3.12Q65.39-0.48 65.15-0.27L65.15-0.27Q64.78 0.83 63.59 1.58L63.59 1.58Q63.08 1.93 59.78 2.36L59.78 2.36Q57.93 2.69 57.34 2.69L57.34 2.69 57.2 2.69Q54.89 2.69 53.33 0.51L53.33 0.51Q52.64-0.64 52.64-1.75L52.64-1.75Q52.64-2.98 53.07-19.74L53.07-19.74Q52.96-20.17 52.61-20.38L52.61-20.38 52.23-20.46Q52.07-20.44 51.94-20.44L51.94-20.44Q50.25-20.44 49.58-22.1L49.58-22.1Q49.49-22.34 49.49-22.75L49.49-22.75 49.49-25.49Q49.49-27.12 51.03-28.28L51.03-28.28Q51.78-28.95 53.95-28.95L53.95-28.95Q56.5-29.03 57.26-29.03ZM77.67-8.06L77.67-8.06 77.67-3.49Q81.61-3.38 82.26-3.38L82.26-3.38Q83.06-3.38 83.68-4.38L83.68-4.38Q83.84-4.75 83.84-5.24L83.84-5.24 83.84-6.34Q83.84-7.12 83.41-7.57L83.41-7.57Q82.85-8.16 82.26-8.16L82.26-8.16Q80.92-8.16 77.67-8.06Z" transform="translate(-2.5, 42.15999984741211)"></path></g> </g></g> <g fill-rule="" class="tp-slogan" fill="#000000" transform="translate(29.262840270996094,57.128997802734375)"> <g transform="scale(1, 1)"><g transform="scale(2.200000000000001)"><path d="M3.48 0.06L3.48 0.06Q2.58-0.38 2.19-0.70L2.19-0.70L1.89-1.38Q1.75-1.84 1.72-3.15Q1.69-4.46 1.89-5.31L1.89-5.31L2.12-5.84L2.50-6.13Q3.33-6.28 3.95-6.32Q4.57-6.36 5.48-6.36L5.48-6.36L5.48-7.35Q4.96-7.35 4.39-7.31Q3.82-7.27 3.36-7.49L3.36-7.49Q3.08-7.84 3.21-8.32L3.21-8.32L3.61-8.64Q4.30-8.85 8.43-8.78L8.43-8.78Q8.78-8.77 9.05-8.73Q9.33-8.70 9.48-8.40L9.48-8.40Q9.64-8.11 9.55-7.72L9.55-7.72Q9.33-7.35 8.95-7.31Q8.58-7.27 8.20-7.27L8.20-7.27L6.91-7.35L6.91-6.36Q7.66-6.36 8.46-6.36Q9.26-6.36 9.79-5.75L9.79-5.75Q9.94-5.46 10.03-5.15Q10.11-4.84 10.16-4.39L10.16-4.39Q10.32-3.67 9.98-0.67L9.98-0.67Q9.86-0.40 9.56-0.17Q9.26 0.06 8.88 0.13L8.88 0.13Q3.90 0.22 3.48 0.06ZM4.04-1.30L4.04-1.30L4.04-2.29L3.98-4.61L4.03-4.89L3.33-4.85Q2.99-4.62 2.99-3.57Q2.99-2.53 3.19-1.76L3.19-1.76Q3.49-1.43 3.57-1.34Q3.64-1.24 4.04-1.30ZM6.54-1.30L6.52-2.03L5.48-2.03L5.46-1.30L6.54-1.30ZM8.05-1.30L8.73-1.30Q8.93-1.71 8.91-3.90L8.91-3.90Q8.89-4.24 8.81-4.51Q8.72-4.78 8.50-4.92L8.50-4.92L8.05-4.92L8.05-1.30ZM5.40-2.80L6.61-2.80L6.61-3.52L6.23-3.52L5.40-3.45L5.40-2.80ZM5.40-4.41L6.66-4.37L6.69-4.92L5.40-4.92L5.40-4.41ZM13.43 0.64L13.43 0.64L13.20 0.49Q12.97 0.12 12.97-0.37Q12.97-0.86 12.97-1.31L12.97-1.31L13.20-1.84Q13.44-2.06 14.03-1.99L14.03-1.99Q14.55-1.62 15.28-1.69Q16.00-1.77 16.44-1.24L16.44-1.24Q16.62-0.91 16.52 0.05L16.52 0.05Q15.84 0.49 15.01 0.46Q14.18 0.42 13.43 0.64ZM14.17-0.26L15.61-0.26Q15.75-0.57 15.61-0.94L15.61-0.94L14.17-1.01L14.17-0.26ZM14.17-2.67L14.17-2.67Q13.72-2.84 13.88-3.20L13.88-3.20Q14.25-3.42 14.74-3.39Q15.23-3.35 15.68-3.35L15.68-3.35Q15.97-3.23 15.83-2.89L15.83-2.89Q15.53-2.67 15.08-2.67Q14.63-2.67 14.17-2.67ZM14.26-3.88L14.26-3.88Q13.78-4.09 13.96-4.41L13.96-4.41Q14.33-4.64 14.78-4.60Q15.23-4.56 15.69-4.56L15.69-4.56Q15.89-4.38 15.84-4.10L15.84-4.10Q15.54-3.88 15.09-3.88Q14.64-3.88 14.26-3.88ZM13.50-5.24L13.50-5.24Q12.64-5.60 12.82-6.29L12.82-6.29L12.97-6.53Q13.20-6.67 13.58-6.67Q13.96-6.67 14.26-6.67L14.26-6.67Q14.26-6.97 14.30-7.20Q14.33-7.43 14.48-7.65L14.48-7.65Q14.71-7.80 14.94-7.84Q15.16-7.88 15.47-7.88L15.47-7.88Q15.84-7.65 15.84-7.35Q15.84-7.05 15.84-6.67L15.84-6.67Q16.15-6.67 16.37-6.63Q16.59-6.60 16.75-6.38L16.75-6.38Q16.91-6.08 16.82-5.70L16.82-5.70Q16.15-5.17 15.24-5.24Q14.33-5.31 13.50-5.24ZM22.54-0.73L22.54-0.73L22.01-0.95L21.33-2.09L20.63-3.48Q20.11-4.58 20.04-5.03L20.04-5.03Q19.03-4.97 18.19-5.07L18.19-5.07L17.44-5.19Q16.68-5.74 17.44-6.26L17.44-6.26Q17.99-6.30 18.58-6.37Q19.17-6.43 19.59-6.48L19.59-6.48Q19.57-6.90 19.36-7.29L19.36-7.29Q19.05-8.33 20.41-7.97L20.41-7.97Q20.79-7.66 20.91-7.25Q21.02-6.84 21.18-6.46L21.18-6.46Q21.55-6.46 21.89-6.46Q22.23-6.46 22.45-6.16L22.45-6.16Q22.78-5.87 22.54-5.48L22.54-5.48Q22.38-5.25 22.14-5.19Q21.89-5.12 21.52-5.07L21.52-5.07Q21.52-4.70 22.17-3.54Q22.83-2.39 23.09-2.05Q23.36-1.71 23.29-1.18L23.29-1.18Q23.13-0.95 22.95-0.87Q22.76-0.80 22.54-0.73ZM22.01-7.32L22.01-7.32Q21.70-7.48 21.48-7.70Q21.26-7.92 21.11-8.23L21.11-8.23L21.11-8.91L21.26-9.14L22.09-9.28Q22.46-8.91 22.80-8.57Q23.14-8.23 22.99-7.70L22.99-7.70Q22.84-7.39 22.58-7.32Q22.31-7.25 22.01-7.32ZM17.04-1.29L17.04-1.29L16.61-1.45Q16.43-1.66 16.49-2.04L16.49-2.04L16.61-2.20Q16.91-2.36 17.20-2.33Q17.48-2.30 17.72-2.30L17.72-2.30L17.72-3.25Q17.37-3.25 17.19-3.23Q17.02-3.21 16.59-3.40L16.59-3.40Q16.37-3.67 16.46-3.98L16.46-3.98L16.59-4.15Q17.02-4.32 17.19-4.29Q17.37-4.25 17.72-4.25L17.72-4.25L18.86-4.25L19.34-4.25L19.76-4.28Q20.00-4.16 20.06-3.98Q20.11-3.80 20.05-3.57L20.05-3.57Q19.70-3.22 19.42-3.23Q19.15-3.25 18.86-3.25L18.86-3.25L18.86-2.30Q19.05-2.30 19.48-2.33Q19.90-2.36 20.13-2.10L20.13-2.10Q20.27-1.83 20.19-1.62L20.19-1.62Q20.07-1.45 19.92-1.40Q19.77-1.35 19.58-1.29L19.58-1.29Q17.30-1.21 17.04-1.29Z" transform="translate(-1.7130408653846152, 9.28125)"></path></g></g></g></g></g></g><defs v-gra="od"></defs></g></svg>